PathFileType	4	(X/Y/Z)	RBDS015\RBDS015runT35.trc
DataRate	CameraRate	NumFrames	NumMarkers	Units	OrigDataRate	OrigDataStartFrame	OrigNumFrames
150.000000	150.000000	6	33	mm	150.000000	3375	4500
Frame#	Time	L.ASIS			L.Heel.Bottom			L.Heel.Lateral			L.Heel.Top			L.Iliac.Crest			L.MT1			L.MT5			L.PSIS			L.Shank.Bottom.Lateral			L.Shank.Bottom.Medial			L.Shank.Top.Lateral			L.Shank.Top.Medial			L.Thigh.Bottom.Lateral			L.Thigh.Bottom.Medial			L.Thigh.Top.Lateral			L.Thigh.Top.Medial			R.ASIS			R.ASY			R.Heel.Bottom			R.Heel.Lateral			R.Heel.Top			R.Iliac.Crest			R.MT1			R.MT5			R.PSIS			R.Shank.Bottom.Lateral			R.Shank.Bottom.Medial			R.Shank.Top.Lateral			R.Shank.Top.Medial			R.Thigh.Bottom.Lateral			R.Thigh.Bottom.Medial			R.Thigh.Top.Lateral			R.Thigh.Top.Medial			
		X1	Y1	Z1	X2	Y2	Z2	X3	Y3	Z3	X4	Y4	Z4	X5	Y5	Z5	X6	Y6	Z6	X7	Y7	Z7	X8	Y8	Z8	X9	Y9	Z9	X10	Y10	Z10	X11	Y11	Z11	X12	Y12	Z12	X13	Y13	Z13	X14	Y14	Z14	X15	Y15	Z15	X16	Y16	Z16	X17	Y17	Z17	X18	Y18	Z18	X19	Y19	Z19	X20	Y20	Z20	X21	Y21	Z21	X22	Y22	Z22	X23	Y23	Z23	X24	Y24	Z24	X25	Y25	Z25	X26	Y26	Z26	X27	Y27	Z27	X28	Y28	Z28	X29	Y29	Z29	X30	Y30	Z30	X31	Y31	Z31	X32	Y32	Z32	X33	Y33	Z33	

3376	22.5	2147.516723324134	1050.825941227769	911.8876179858891	1948.014096336689	155.5692144411059	993.5786013122136	1973.488807968045	162.4985776329069	949.4394784219883	1973.119727455736	189.9147279330234	993.2663222975671	2059.752461535301	1144.493819253977	881.549140330762	2147.176682570602	79.79999902056593	1009.741157464608	2103.258806146912	84.71439807347477	904.0483049138668	1973.520241219193	1107.315757220255	984.835717221461	2082.560282727172	273.6626403491338	923.3434863882893	2042.69672457403	294.1075962947038	947.9811575588159	2114.398331585754	346.6868259911766	907.9654558365903	2075.475393491728	371.2053143904172	934.7593084175812	2226.697938070283	710.5010702545491	872.6087358966713	2170.696280670083	678.4030536199775	894.6577531585312	2167.962893419081	802.5182043319129	855.9633366352227	2109.016883055943	768.1508453190711	879.9352271693142	2152.607373765306	1036.760958016387	1137.189577420749	1762.960405343628	90.11811119134991	1080.998890802724	1589.365896032918	158.8251050739505	1054.093006482185	1617.121590117257	155.2376000801968	1099.329830149956	1622.521555475054	190.4384530230338	1061.800756305926	2102.965953709124	1124.09971594716	1182.775711096816	1763.115418951302	48.00674633529973	1028.021128560265	1713.490211577465	52.10615574515062	1138.668771445702	1977.262101747122	1106.899259809739	1078.174390213917	1735.400624382335	250.3399601559909	1124.389847747265	1696.695470011096	276.6521833516538	1093.939628237492	1773.53318023296	321.4437980871685	1135.862193406592	1734.481694679381	346.1884426550666	1107.058091191196	1977.249683698112	699.4752250882276	1171.239846847421	1920.230318626496	711.4930098359332	1127.242155526899	1986.210151734702	807.6177088718383	1183.475993289142	1932.944523010856	819.5538844300274	1140.46317411969	
3377	22.50666666666667	2149.415496790473	1055.805854404288	911.9085516928122	1977.089477921695	138.2495869904886	996.9600596784994	2001.743417357098	146.6358677445382	952.5566906278819	1999.730176626979	174.2329515930593	996.1538871203877	2061.879493199894	1151.003035442739	880.9051143159293	2181.113176174628	76.71173528249943	1012.487270664498	2136.329529402273	77.72376838451352	906.975976445892	1975.609918401615	1112.68550763841	984.9027331432361	2102.356944981531	265.5656889915829	925.3919106955652	2061.610748453008	283.3041179990283	950.6978904887052	2129.023807438345	340.5203111986409	909.6483354658129	2088.937309700451	362.4063189462112	937.0754521437469	2224.751359899809	713.2198483110873	873.9658852190519	2168.588379386715	681.7492062247849	896.5700449669301	2166.679413821599	805.6134437739815	857.1353596445114	2107.621393284949	772.00093661571	881.9871021514808	2154.380131569143	1040.502474707709	1136.834840423169	1746.614413884253	92.34475948426596	1082.934788845238	1577.759880911423	172.8140751885282	1058.135408221901	1605.651044095613	166.7429233135897	1103.049082010873	1612.97866644119	202.00761844997	1065.929975424234	2106.346496249114	1129.63442697237	1182.130520309016	1743.51869961568	50.61650464426382	1029.446100336329	1695.09240776938	56.62729642044477	1140.21436428098	1979.410294853322	1111.627134056828	1078.388281414326	1724.603925481332	257.8674572276932	1127.452845524839	1685.94772303374	283.959043976903	1096.733147532564	1762.899199914404	329.023368086343	1138.121152001826	1723.927313141209	353.5399797047947	1109.040258414808	1971.543860114805	705.468788555035	1171.041116858753	1914.981504021092	718.8521969391859	1126.807549927136	1983.273999219245	813.388815893656	1183.083744005303	1930.454013271826	826.5546466893733	1139.798705759066	
3378	22.51333333333334	2151.437412475616	1060.58088971965	912.0188061803375	2006.886741000777	122.2108072929775	999.9081523889325	2030.766182850528	131.9515944411925	955.3144411297317	2026.932947082764	159.655394305057	998.6402488888868	2064.434490487077	1157.320585810983	880.0949807058192	2214.67550987891	75.28525209435016	1015.371260029718	2169.656943144805	72.22015552819721	909.9315756440096	1977.728947186544	1117.853902250035	985.0618447962497	2122.297381483473	258.1265629903239	927.2282763192303	2080.875560491958	273.1224817644516	953.1912541102413	2143.731283288117	334.6299943456116	911.1741619065036	2102.652264062081	353.8367696130902	939.194156466495	2222.063091188116	715.0511515878453	875.2179699500335	2165.733711105025	684.3166726901775	898.4335097104575	2164.799093986859	807.9215616476034	858.2653926504508	2105.622380473649	775.1713608051853	884.0372964255064	2156.160672740715	1044.002932423322	1136.500672625321	1730.777419457665	95.25781018414149	1084.784580263109	1567.225254085153	186.9773453784755	1062.33913883583	1595.155137128049	178.5446106117026	1106.880458764223	1604.389351102847	213.6535229596144	1070.064909945497	2109.384027159438	1134.975099121644	1181.403452474406	1724.427148515135	53.89195153469775	1031.019411691294	1677.421340625832	62.02226428891132	1141.883587076554	1981.58600177817	1116.25165905489	1078.672025363567	1714.689733400419	265.2919875734381	1130.430924865756	1676.009285462755	291.2623818428211	1099.626343110178	1753.20372515594	336.4576868338378	1140.352330077956	1714.281699627157	360.8193483541667	1111.116573868961	1966.426616797336	711.2696793459646	1170.875308244804	1910.329280066282	725.8804460699997	1126.401002321839	1980.724623000479	818.9448876823852	1182.740069375425	1928.345365621952	833.2126711581196	1139.197318334896	
3379	22.52	2153.495615209666	1065.050229453823	912.2211141370137	2037.140591356786	107.6390771046809	1002.43850591798	2060.2995987881	118.6408572539032	957.7223937680258	2054.490959883678	146.3514440244093	1000.745680672023	2067.28986438771	1163.313072469715	879.1967483535961	2247.571795327563	75.56728354751002	1018.339603205895	2202.946195621311	68.34551673313109	912.8769018011193	1979.823442471118	1122.760444375292	985.3065021852499	2142.230365591357	251.4682787434687	928.8699985291596	2100.328330623484	263.7046476624238	955.4577587480961	2158.420721423287	329.1358851917523	912.5622613461885	2116.51655449872	345.6351637673383	941.1182121310979	2218.75165659887	716.0265726945407	876.3008320780793	2162.302017646043	686.1243618691946	900.2340541790344	2162.396025105316	809.438589958771	859.2711405371157	2103.136558969795	777.6391085508017	886.0303229653282	2157.924714290589	1047.242544482246	1136.179731680707	1715.409580527871	98.92573142661465	1086.57384426565	1557.596731500386	201.1940944703183	1066.556794025996	1585.45510818192	190.5649900357632	1110.709927436994	1596.545889211687	225.3085054513034	1074.088596951857	2112.102442645365	1140.027995420447	1180.619049774658	1705.858657124097	57.88649633687037	1032.752863828467	1660.454676135786	68.29997677478401	1143.670790022421	1983.768387968486	1120.731319485512	1079.041654343825	1705.522891310585	272.6078655882873	1133.266383465948	1666.768464852368	298.5891627271623	1102.560439799215	1744.358443677684	343.7119754810084	1142.520353377943	1705.470459286111	368.0271379828413	1113.258700331721	1961.951929574173	716.7779679315089	1170.747177445246	1906.307182039645	732.4843568651587	1126.045164812294	1978.604535461033	824.1945610524609	1182.463289145483	1926.636611623657	839.4463195554682	1138.7030560017	
3380	22.52666666666667	2155.500208948696	1069.109091003898	912.5143960118728	2067.543556781418	94.68259645542966	1004.59398036151	2090.030157477625	106.8603896145162	959.8109390851178	2082.127471775819	134.4566717947304	1002.511625064973	2070.318966778107	1168.850260472765	878.2870411921791	2279.494092637435	77.55338441053712	1021.323327118816	2235.845349415722	66.18850599046564	915.7668203148218	1981.843708958444	1127.345438134094	985.6154659209028	2161.975042547263	245.6923273748355	930.3436702402932	2119.772056831448	255.1722818631334	957.5058865071508	2172.961993608363	324.1476641937397	913.8378112574247	2130.395120761762	337.9308187910913	942.8614177914272	2214.956250982397	716.207281616169	877.1554033451895	2158.486385096755	687.218393735709	901.967420637867	2159.561062033087	810.1885374424742	860.0753202365509	2100.299029662054	779.408504019768	887.9236417095327	2159.65216946138	1050.202427591463	1135.861326714496	1700.473417388775	103.3895580791372	1088.340448691836	1548.684611547359	215.3492161406471	1070.619886470959	1576.351795920464	202.7292994179061	1114.405098068071	1589.225150461304	236.9133490903951	1077.86945115579	2114.549305398045	1144.717847372951	1179.805093010594	1687.843753267856	62.62851109062048	1034.658004258758	1644.15548354575	75.44477966574355	1145.56824456366	1985.933983205533	1125.019203311407	1079.499069615311	1696.951532386608	279.8285948696314	1135.90766793899	1658.11163595915	305.9782960412462	1105.461691287908	1736.258237613661	350.7687052537132	1144.593172102093	1697.413072172855	375.1766020118222	1115.425637054887	1958.181928252068	721.8896956764351	1170.672844779417	1902.950924658972	738.5674997660317	1125.782301897793	1976.964420375914	829.0426394827822	1182.279050330521	1925.351526214945	845.1701254328292	1138.369722324059	
3381	22.53333333333333	2157.367005342942	1072.663703081095	912.8921906652804	2097.74949085235	83.43655169718646	1006.435610628693	2119.594823133378	96.71257285079169	961.6244369273745	2109.52884679167	124.0598657575549	1003.993346888322	2073.403199578765	1173.812997610221	877.4315434514263	2310.126924585623	81.17626448926326	1024.242724426755	2267.958862377299	65.76675419848003	918.5510600038923	1983.745776584036	1131.548694767499	985.9577773189469	2181.323859227043	240.867669854214	931.6805883224011	2138.979810961583	247.6173578150705	959.35343569239	2187.198514805575	319.7540803067337	915.0284452825921	2144.125559368314	330.8346404402184	944.4464660566384	2210.829191586003	715.6817111940563	877.7381095701729	2154.487828529373	687.6684379969241	903.6370187117184	2156.397716424383	810.2242331701291	860.6179650446153	2097.253144481809	780.511261423736	889.6904947785974	2161.328024377126	1052.863028826428	1135.531495067061	1685.940931907423	108.6623509007592	1090.126659706726	1540.292571004902	229.3405358390737	1074.358024243985	1567.646432323226	214.970828944388	1117.829901404407	1582.208888183992	248.4201863357845	1081.274841660474	2116.785703757007	1148.990124440096	1178.988658563997	1670.424154183511	68.1205868856194	1036.743635605633	1628.482345840981	83.42071956852099	1147.566946985652	1988.055836857645	1129.062698202813	1080.031963497309	1688.822351622263	286.982013037482	1138.312179634384	1649.934338457695	313.4740708385713	1108.247914456373	1728.792424215637	357.6246465991823	1146.542814401509	1690.031676640382	382.2881554059066	1117.566978260443	1955.181044960466	726.4989311160972	1170.676909558697	1900.294633337045	744.0303741307497	1125.668106111565	1975.855799380668	833.3926336941738	1182.216687014187	1924.514806760211	850.2951926621226	1138.253424750928	
